<svg width="128" height="128" viewBox="0 0 128 128" fill="none" xmlns="http://www.w3.org/2000/svg">
<g clip-path="url(#clip0_132_2)">
<path d="M114.272 32.6845L66.026 4.80898C65.3996 4.44739 64.7 4.2666 64.0001 4.2666C63.3001 4.2666 62.6001 4.44739 61.9741 4.80898L13.728 32.6845C12.4933 33.3982 11.7334 34.7087 11.7334 36.1244V91.8755C11.7334 93.2912 12.4933 94.6017 13.728 95.3173L61.9741 123.193C62.6005 123.554 63.2993 123.733 64.0001 123.733C64.7008 123.733 65.3996 123.554 66.026 123.193L114.272 95.3173C115.509 94.6017 116.267 93.2912 116.267 91.8755V36.1244C116.267 34.7087 115.509 33.3982 114.272 32.6845ZM64.0001 12.859L104.268 36.124L94.7095 41.6461L72.0411 28.6924C70.7927 27.9807 69.2689 27.9807 68.0206 28.6924L41.8893 43.6257C41.0884 44.0836 40.5154 44.8048 40.1866 45.6303L23.7326 36.1236L64.0001 12.859ZM47.918 59.3184L59.9795 66.2873V81.5357L47.918 74.6436V59.3184ZM64.0001 59.3897L47.918 50.098V49.376L70.0308 36.7392L86.7079 46.2699L64.0001 59.3897ZM68.0206 66.2873L92.1437 52.3495V74.6436L70.0308 87.2788L68.0206 86.1299V66.2873ZM19.7744 43.0574L39.877 54.6724V76.9422C39.877 78.3654 40.6445 79.6799 41.8893 80.3916L59.9795 90.7298V112.82L19.7744 89.5889V43.0574ZM68.0206 112.82V95.3249C68.645 95.6789 69.3357 95.8577 70.0308 95.8577C70.726 95.8577 71.4167 95.6789 72.0411 95.3249L98.1744 80.3916C99.4192 79.6799 100.185 78.3654 100.185 76.9422V47.7035L108.226 43.0574V89.5889L68.0206 112.82Z" fill="white"/>
</g>
<defs>
<clipPath id="clip0_132_2">
<rect width="128" height="128" fill="white"/>
</clipPath>
</defs>
</svg>
