<svg width="32" height="32" viewBox="0 0 32 32" fill="none" xmlns="http://www.w3.org/2000/svg">
<g clip-path="url(#clip0_132_2)">
<path d="M28.568 8.17113L16.5065 1.20225C16.3499 1.11185 16.175 1.06665 16 1.06665C15.825 1.06665 15.65 1.11185 15.4935 1.20225L3.43199 8.17113C3.12332 8.34954 2.93335 8.67718 2.93335 9.0311V22.9689C2.93335 23.3228 3.12332 23.6504 3.43199 23.8293L15.4935 30.7982C15.6501 30.8886 15.8248 30.9333 16 30.9333C16.1752 30.9333 16.3499 30.8886 16.5065 30.7982L28.568 23.8293C28.8772 23.6504 29.0667 23.3228 29.0667 22.9689V9.0311C29.0667 8.67718 28.8772 8.34954 28.568 8.17113ZM16 3.21476L26.0669 9.031L23.6774 10.4115L18.0103 7.17309C17.6982 6.99518 17.3172 6.99518 17.0051 7.17309L10.4723 10.9064C10.2721 11.0209 10.1289 11.2012 10.0466 11.4076L5.93315 9.0309L16 3.21476ZM11.9795 14.8296L14.9949 16.5718V20.3839L11.9795 18.6609V14.8296ZM16 14.8474L11.9795 12.5245V12.344L17.5077 9.18481L21.677 11.5675L16 14.8474ZM17.0051 16.5718L23.0359 13.0874V18.6609L17.5077 21.8197L17.0051 21.5325V16.5718ZM4.94361 10.7644L9.96925 13.6681V19.2355C9.96925 19.5914 10.1611 19.92 10.4723 20.0979L14.9949 22.6825V28.2049L4.94361 22.3972V10.7644ZM17.0051 28.2049V23.8312C17.1612 23.9197 17.3339 23.9644 17.5077 23.9644C17.6815 23.9644 17.8542 23.9197 18.0103 23.8312L24.5436 20.0979C24.8548 19.92 25.0462 19.5914 25.0462 19.2355V11.9259L27.0564 10.7644V22.3972L17.0051 28.2049Z" fill="white"/>
</g>
<defs>
<clipPath id="clip0_132_2">
<rect width="32" height="32" fill="white"/>
</clipPath>
</defs>
</svg>
