<svg width="280" height="280" viewBox="0 0 280 280" fill="none" xmlns="http://www.w3.org/2000/svg">
<rect x="195" y="65" width="20" height="20" rx="10" fill="#7C3AED"/>
<path d="M185 75C185 80.5228 180.523 85 175 85H95C89.4772 85 85 89.4772 85 95V145C85 150.523 89.4772 155 95 155H185C190.523 155 195 150.523 195 145V105C195 99.4772 199.477 95 205 95C210.523 95 215 99.4772 215 105V205C215 210.523 210.523 215 205 215C199.477 215 195 210.523 195 205V185C195 179.477 190.523 175 185 175H95C89.4771 175 85 179.477 85 185V205C85 210.523 80.5228 215 75 215C69.4772 215 65 210.523 65 205V75C65 69.4772 69.4772 65 75 65H175C180.523 65 185 69.4772 185 75Z" fill="#212121"/>
<path d="M280 70C280 75.5229 275.523 80 270 80C264.477 80 260 75.5229 260 70V30C260 24.4772 255.523 20 250 20H30C24.4772 20 20 24.4772 20 30V250C20 255.523 24.4772 260 30 260H250C255.523 260 260 255.523 260 250V210C260 204.477 264.477 200 270 200C275.523 200 280 204.477 280 210V270C280 275.523 275.523 280 270 280H10C4.47715 280 0 275.523 0 270V10C0 4.47715 4.47715 0 10 0H270C275.523 0 280 4.47715 280 10V70Z" fill="#212121"/>
</svg>
